<?xml version="1.0" encoding="UTF-8" standalone="no"?>
<!-- Created with Inkscape (http://www.inkscape.org/) -->

<svg
   xmlns:dc="http://purl.org/dc/elements/1.1/"
   xmlns:cc="http://creativecommons.org/ns#"
   xmlns:rdf="http://www.w3.org/1999/02/22-rdf-syntax-ns#"
   xmlns:svg="http://www.w3.org/2000/svg"
   xmlns="http://www.w3.org/2000/svg"
   xmlns:inkscape="http://www.inkscape.org/namespaces/inkscape"
   version="1.1"
   width="408.75"
   height="207.5"
   id="svg2"
   xml:space="preserve"><metadata
     id="metadata8"><rdf:RDF><cc:Work
         rdf:about=""><dc:format>image/svg+xml</dc:format><dc:type
           rdf:resource="http://purl.org/dc/dcmitype/StillImage" /></cc:Work></rdf:RDF></metadata><defs
     id="defs6" /><g
     transform="matrix(1.25,0,0,-1.25,0,207.5)"
     id="g10"><g
       transform="scale(0.1,0.1)"
       id="g12"><path
         d="m 2431.48,1143.64 -154.37,43.08 -174.06,198.32 c -7,6.45 -14.53,7.23 -22.58,2.42 l -74.57,-53.24 -316.33,314.77 c -3.79,3.2 -7.93,4.84 -12.5,4.84 -4.57,-0.27 -8.59,-2.19 -12.11,-5.66 l -219.22,-241.41 c 91.37,-88.36 195.04,-153.79 311.1,-196.21 116.09,-42.5 225.7,-70 328.86,-82.62 102.89,-12.61 180.39,-18.43 232.54,-17.34 l 21.76,0 c 16.41,0.27 24.69,0.39 25,0.39 l -1.25,-0.39 63.28,0 c 9.14,0.51 14.65,5.39 16.52,14.49 0.83,9.42 -3.24,15.59 -12.07,18.56"
         inkscape:connector-curvature="0"
         id="path14"
         style="fill:#002b61;fill-opacity:1;fill-rule:evenodd;stroke:none" /><path
         d="m 1418.32,1429.34 -15.7,13.71 c -8.32,5.63 -16.1,5.27 -23.36,-1.21 l -246.21,-258.71 -146.722,-39.49 c -8.867,-2.97 -13.008,-9.14 -12.5,-18.56 2.152,-9.1 7.813,-14.1 16.953,-14.92 l 753.989,0 c -66.88,35.74 -123.83,76.87 -170.86,123.32 -47.03,46.48 -83.71,88.55 -110,126.17 -26.1,37.58 -41.25,60.82 -45.59,69.69"
         inkscape:connector-curvature="0"
         id="path16"
         style="fill:#002b61;fill-opacity:1;fill-rule:evenodd;stroke:none" /><path
         d="m 2267.85,1140.39 -177.73,205.51 -30.2,-69.3 51.56,-96.28 -431.99,422.73 57.19,-137.03 -80.94,-46.33 178.91,-104.76 -251.45,12.5 c 91.33,-59.93 189.53,-103.21 294.53,-129.81 104.81,-26.6 195.08,-43.12 270.82,-49.53 75.79,-6.21 115.55,-8.75 119.3,-7.7"
         inkscape:connector-curvature="0"
         id="path18"
         style="fill:#4c82c2;fill-opacity:1;fill-rule:evenodd;stroke:none" /><path
         d="m 1646.45,1140 c -45.94,32.78 -86.8,69.46 -122.5,110 -35.47,40.86 -63.56,76.29 -84.22,106.41 -20.43,30.35 -30.78,46.33 -31.06,47.93 l -14.53,14.92 -8.83,-148.28 -44.72,20.55 -89.11,-151.53 394.97,0"
         inkscape:connector-curvature="0"
         id="path20"
         style="fill:#4c82c2;fill-opacity:1;fill-rule:evenodd;stroke:none" /><path
         d="m 67.6211,749.18 c 0,-16.68 0.6601,-30.621 2.0273,-41.871 1.3321,-11.25 3.75,-22.887 7.1914,-34.848 l -58.6015,0 c 3.4414,11.641 5.7812,23.129 7.0312,34.379 1.3321,11.332 2.0313,25.469 2.0313,42.34 l 0,156.25 -27.3398625,31.879 62.1874625,0 c 0.0821,-3.559 1.1328,-7.579 3.1211,-12.028 2.0703,-4.383 4.7696,-8.562 8.1289,-12.5 L 156.84,809.648 233.09,906.68 c 4.449,5.629 8.121,11.172 10.93,16.718 2.82,5.633 4.218,10.243 4.218,13.911 l 56.563,0 C 296.68,925.32 290.98,913.711 287.77,902.461 c -3.122,-11.25 -4.68,-25.231 -4.68,-41.871 l 0,-111.41 c 0,-16.68 0.66,-30.621 2.031,-41.871 1.328,-11.25 3.75,-22.887 7.18,-34.848 l -58.59,0 c 3.32,11.641 5.668,23.129 7.027,34.379 1.332,11.332 2.032,25.469 2.032,42.34 l 0,114.07 -87.5,-114.07 -87.6489,108.129 0,-108.129 z M 446.762,673.711 c -8.364,-2.18 -15.082,-3.59 -20.16,-4.211 -5.122,-0.711 -11.172,-1.102 -18.122,-1.102 -24.378,0 -44.652,8.524 -60.781,25.633 -16.179,17.18 -24.219,38.75 -24.219,64.68 0,29.07 8.942,53.211 26.872,72.5 17.886,19.379 40.308,29.07 67.187,29.07 7.191,0 13.441,-0.281 18.75,-0.781 5.391,-0.551 12.852,-1.648 22.34,-3.289 l -1.867,-42.5 c -6.801,7.269 -13.563,12.539 -20.313,15.789 -6.679,3.32 -13.988,5 -21.879,5 -16.25,0 -29.179,-6.102 -38.75,-18.289 -9.492,-12.18 -14.218,-28.75 -14.218,-49.68 0,-21.25 5.039,-38.133 15.16,-50.633 10.078,-12.5 23.668,-18.75 40.777,-18.75 5.82,0 11.91,0.821 18.281,2.5 6.328,1.641 14.84,4.731 25.469,9.223 l -14.527,-35.16 z m 100.937,75.469 c 0,-16.68 0.66,-30.621 2.031,-41.871 1.321,-11.25 3.75,-22.887 7.18,-34.848 l -53.898,0 c 3.437,11.641 5.816,23.129 7.187,34.379 1.321,11.332 2.031,25.469 2.031,42.34 l 0,149.07 c -6.058,7.891 -11.21,14.371 -15.468,19.371 -9.301,11.25 -15.391,17.809 -18.282,19.688 l 62.809,0 c 7.262,-13.36 14.262,-25.118 20.941,-35.309 6.75,-10.121 15,-21.41 24.68,-33.91 L 687.852,737 l 0,123.59 c 0,16.558 -0.704,30.469 -2.032,41.719 -1.371,11.25 -3.832,22.89 -7.34,35 l 53.899,0 c -3.359,-11.879 -5.699,-23.438 -7.027,-34.688 -1.372,-11.25 -2.032,-25.269 -2.032,-42.031 l 0,-124.531 c 0,-13.047 0.821,-25.707 2.5,-37.969 1.641,-12.192 3.75,-20.738 6.25,-25.629 l -53.91,0 c -0.621,3.828 -3.898,10.629 -9.84,20.32 -5.859,9.758 -12.769,19.758 -20.781,30 l -99.84,130.469 0,-104.07 z m 304.289,-80.782 c -25.308,0 -46.09,8.481 -62.34,25.473 -16.25,16.949 -24.378,38.75 -24.378,65.309 0,28.949 7.109,53.011 21.41,72.191 14.261,19.258 32.07,28.91 53.441,28.91 l 0.469,0 c 20.93,0 37.031,-7.312 48.281,-21.883 11.328,-14.488 17.027,-35.226 17.027,-62.187 l 0,-16.563 -101.718,0 c 1.761,-16.679 6.601,-30.546 14.531,-41.558 10,-13.988 23.629,-20.942 40.937,-20.942 7.692,0 15.313,0.981 22.813,2.973 7.578,2.07 14.449,5 20.629,8.75 l -14.539,-35.16 c -8.039,-2.18 -14.492,-3.59 -19.371,-4.211 -4.918,-0.711 -10.629,-1.102 -17.192,-1.102 z m 23.91,116.723 c -0.117,16.02 -3.089,28.277 -8.91,36.719 -5.859,8.441 -14.328,12.66 -25.468,12.66 l 0.16,0 c -12.192,0 -21.559,-5.16 -28.129,-15.469 -5.313,-8.359 -8.551,-19.652 -9.68,-33.91 l 72.027,0 z m 66.403,-58.91 0,76.25 c 0,9.891 -0.582,18.75 -1.711,26.57 -1.18,7.891 -3.211,16.949 -6.102,27.18 l 52.352,0 c -2.93,-5.93 -5,-12.891 -6.25,-20.781 -1.18,-7.809 -1.719,-18.828 -1.719,-32.969 l 0,-76.25 c 0,-14.289 0.539,-25.391 1.719,-33.281 1.25,-7.809 3.32,-14.649 6.25,-20.469 l -52.352,0 c 2.891,5.629 4.922,12.391 6.102,20.32 1.129,7.809 1.711,18.938 1.711,33.43 z m 17.347,206.719 c 6.872,0 12.692,-2.77 17.5,-8.282 4.762,-5.546 7.192,-12.296 7.192,-20.308 0,-8.051 -2.43,-14.809 -7.192,-20.309 -4.808,-5.429 -10.628,-8.133 -17.5,-8.133 -6.878,0 -12.738,2.704 -17.5,8.133 -4.808,5.5 -7.187,12.258 -7.187,20.309 0,8.012 2.379,14.762 7.187,20.308 4.762,5.512 10.622,8.282 17.5,8.282 z m 65.942,-206.719 0,145.32 c 0,11.949 -0.59,21.867 -1.72,29.68 -1.17,7.891 -3.21,15.937 -6.1,24.07 l 26.25,5.309 26.1,5.308 c -2.93,-8.359 -4.96,-17.648 -6.1,-27.968 -1.17,-10.231 -1.72,-24.18 -1.72,-41.871 l 0,-139.848 c 0,-14.289 0.55,-25.391 1.72,-33.281 1.14,-7.809 3.17,-14.649 6.1,-20.469 l -52.35,0 c 2.89,5.629 4.93,12.391 6.1,20.32 1.13,7.809 1.72,18.938 1.72,33.43 z m 394.88,-37.652 c -15,-7.739 -28.24,-13.047 -39.69,-15.938 -11.48,-2.812 -25.08,-4.223 -40.78,-4.223 -37.81,0 -69.34,12.383 -94.53,37.192 -25.24,24.762 -37.81,55.859 -37.81,93.281 0,40.938 13.32,74.879 40,101.879 26.75,27.07 60.23,40.621 100.46,40.621 12.7,0 24.38,-0.941 35,-2.812 10.71,-1.879 21.72,-4.957 32.97,-9.219 l 0,-43.75 c -10.23,7.582 -21.56,13.441 -34.06,17.5 -12.42,4.058 -25.23,6.09 -38.44,6.09 -26.36,0 -48.28,-9.918 -65.78,-29.68 -17.5,-19.809 -26.25,-44.648 -26.25,-74.539 0,-30 8.21,-54.922 24.69,-74.68 16.45,-19.812 37.07,-29.691 61.87,-29.691 16.65,0 31.45,2.379 44.38,7.191 12.89,4.879 26.25,13 40,24.367 l -2.03,-43.589 z m 66.6,113.902 0,-68.43 c 0,-10.633 2.42,-18.519 7.34,-23.601 4.89,-5.11 12.35,-7.649 22.35,-7.649 8.01,0 17.58,2.18 28.75,6.559 l 6.09,2.34 0,90.781 c 0,10 -0.58,18.91 -1.72,26.719 -1.05,7.89 -3.08,16.922 -6.09,27.031 l 52.5,0 c -2.93,-5.93 -5,-12.891 -6.25,-20.781 -1.17,-7.809 -1.72,-18.828 -1.72,-32.969 l 0,-76.25 c 0,-14.289 0.55,-25.391 1.72,-33.281 1.25,-7.809 3.32,-14.649 6.25,-20.469 l -42.81,0 0,31.25 -28.91,-31.402 c -10.43,-2.7 -18.28,-4.059 -23.59,-4.059 -16.57,0 -29.18,4.371 -37.82,13.121 -8.55,8.828 -12.81,21.641 -12.81,38.438 l 0,82.652 c 0,9.891 -0.58,18.75 -1.72,26.57 -1.05,7.891 -3.04,16.949 -5.93,27.18 l 52.34,0 c -2.93,-5.93 -5,-12.813 -6.25,-20.621 -1.17,-7.93 -1.72,-18.988 -1.72,-33.129 z M 1723.2,817 c -5.23,6.012 -10.54,10.461 -15.93,13.281 -5.43,2.809 -11.49,4.219 -18.13,4.219 -7.3,0 -13.4,-1.961 -18.28,-5.789 -4.81,-3.75 -7.19,-8.551 -7.19,-14.371 0,-5.629 1.6,-10.699 4.85,-15.16 3.2,-4.489 9.25,-10.149 18.12,-17.032 15,-11.558 25.51,-21.796 31.56,-30.617 6.02,-8.679 9.07,-18.051 9.07,-28.133 0,-15.859 -5.55,-28.976 -16.57,-39.367 -10.93,-10.429 -24.76,-15.633 -41.4,-15.633 -9.18,0 -17,0.59 -23.44,1.723 -6.48,1.059 -14.45,3.051 -23.91,6.09 l 0,43.75 c 7.07,-8.551 14.14,-14.922 21.25,-19.063 7.07,-4.179 14.38,-6.25 21.88,-6.25 7.19,0 13.12,2.071 17.81,6.25 4.77,4.262 7.19,9.571 7.19,15.942 0,5.191 -1.96,10.23 -5.78,15.16 -3.75,4.68 -11.02,11.129 -21.72,19.371 -13.44,10.508 -22.93,20 -28.44,28.438 -5.43,8.32 -8.12,17.582 -8.12,27.812 0,15.078 5.97,27.66 17.96,37.66 11.96,10 27.04,15 45.16,15 6.64,0 12.38,-0.59 17.19,-1.722 4.88,-1.168 10.51,-3.207 16.87,-6.098 l 0,-35.461 z m 82.11,-148.602 c -14.49,0 -25,4.262 -31.56,12.813 -6.56,8.519 -9.84,22.23 -9.84,41.098 l 0,108.441 -26.1,0 62.5,65.93 0.31,0 0,-40.469 42.66,0 0,-25.461 -42.66,0 0,-93.129 c 0,-12.301 2.08,-21.519 6.26,-27.66 4.25,-6.172 10.62,-9.211 19.06,-9.211 5.19,0 9.92,0.539 14.22,1.711 4.37,1.25 9.57,3.48 15.62,6.719 l -14.53,-35.309 c -6.37,-2.191 -11.95,-3.633 -16.72,-4.371 -4.8,-0.711 -11.21,-1.102 -19.22,-1.102 z m 136.29,0 c -23.24,0 -42.58,8.602 -57.97,25.782 -15.43,17.191 -23.12,38.75 -23.12,64.691 0,29.059 8.59,53.199 25.78,72.5 17.19,19.258 38.67,28.91 64.53,28.91 23.2,0 42.54,-8.679 57.97,-25.941 15.39,-17.192 23.12,-38.75 23.12,-64.692 0,-29.058 -8.59,-53.238 -25.78,-72.5 -17.11,-19.179 -38.59,-28.75 -64.53,-28.75 z m 19.85,25.633 c 9.88,4.141 17.69,11.789 23.43,22.969 5.82,11.129 8.75,24.102 8.75,38.898 0,23.442 -5.62,42.231 -16.87,56.411 -11.25,14.14 -26.53,21.562 -45.78,22.191 -9.93,-4.07 -17.78,-11.719 -23.6,-22.969 -5.86,-11.179 -8.75,-24.179 -8.75,-39.07 0,-23.43 5.63,-42.18 16.88,-56.25 11.33,-14.063 26.64,-21.481 45.94,-22.18 z m 102.07,32.18 0,76.25 c 0,9.891 -0.59,18.75 -1.72,26.57 -1.18,7.891 -3.21,16.949 -6.1,27.18 l 44.38,0 0,-35.313 22.97,28.282 8.28,5 c 7.89,4.07 16.95,6.101 27.19,6.101 14.45,0 25.54,-4.609 33.28,-13.75 5.7,-6.801 9.22,-15.902 10.47,-27.351 l 27.18,30.32 7.35,4.211 c 7.89,4.379 16.29,6.57 25.15,6.57 14.26,0 25.08,-4.5 32.5,-13.441 7.5,-8.871 11.25,-21.879 11.25,-39.059 l 0,-81.57 c 0,-15.539 0.39,-27.262 1.25,-35.152 0.94,-7.93 2.58,-14.137 5,-18.598 l -50.78,0 c 2.89,5.629 4.92,12.348 6.1,20.16 1.13,7.891 1.71,19.098 1.71,33.59 l 0,70.16 c 0,9.879 -2.34,17.231 -7.03,22.027 -4.61,4.883 -11.64,7.352 -21.09,7.352 -8.75,0 -18.44,-2.969 -29.06,-8.91 l -8.75,-5.469 0,-85.16 c 0,-14.289 0.54,-25.391 1.72,-33.281 1.25,-7.809 3.32,-14.649 6.25,-20.469 l -52.35,0 c 2.89,5.629 4.88,12.348 5.94,20.16 1.13,7.891 1.72,19.098 1.72,33.59 l 0,70 c 0,10 -2.31,17.391 -6.88,22.187 -4.61,4.883 -11.68,7.352 -21.25,7.352 -8.12,0 -18.12,-3.129 -30,-9.379 l -8.12,-4.223 0,-85.937 c 0,-14.289 0.54,-25.391 1.72,-33.281 1.25,-7.809 3.32,-14.649 6.25,-20.469 l -52.35,0 c 2.89,5.629 4.92,12.391 6.1,20.32 1.13,7.809 1.72,18.938 1.72,33.43 z m 528.59,158.91 c -7.93,8.438 -15.86,14.527 -23.75,18.277 -7.93,3.832 -16.56,5.782 -25.94,5.782 -11.05,0 -20.23,-3.36 -27.5,-10 -7.3,-6.68 -10.94,-15.078 -10.94,-25.149 0,-8.562 2.82,-16.332 8.44,-23.281 5.51,-6.879 15.51,-14.93 30,-24.07 21.76,-13.981 37.11,-26.989 46.1,-39.059 8.82,-12.191 13.28,-26.41 13.28,-42.66 0,-21.992 -7.78,-40.27 -23.28,-54.84 -15.55,-14.492 -35.08,-21.723 -58.6,-21.723 -11.8,0 -21.83,0.864 -30.15,2.5 -8.36,1.641 -18.09,4.852 -29.22,9.532 l 0,49.531 c 8.12,-10.231 16.48,-17.652 25.15,-22.34 8.75,-4.691 18.28,-7.031 28.6,-7.031 13.12,0 23.94,3.672 32.5,11.09 8.63,7.5 12.97,16.922 12.97,28.281 0,9.769 -2.93,18.437 -8.75,25.937 -5.75,7.383 -16.06,15.821 -30.94,25.313 -21.49,13.519 -36.53,26.141 -45.16,37.82 -8.67,11.559 -12.97,24.84 -12.97,39.84 0,20.699 7.89,37.969 23.75,51.719 15.82,13.832 35.67,20.781 59.53,20.781 9.57,0 18.13,-0.902 25.63,-2.66 7.5,-1.68 14.57,-4.289 21.25,-7.813 l 0,-45.777 z m 93.94,-216.723 c -14.49,0 -25,4.262 -31.56,12.813 -6.56,8.519 -9.84,22.23 -9.84,41.098 l 0,108.441 -26.1,0 62.5,65.93 0.32,0 0,-40.469 42.65,0 0,-25.461 -42.65,0 0,-93.129 c 0,-12.301 2.07,-21.519 6.25,-27.66 4.26,-6.172 10.62,-9.211 19.06,-9.211 5.2,0 9.92,0.539 14.22,1.711 4.37,1.25 9.57,3.48 15.62,6.719 l -14.53,-35.309 c -6.37,-2.191 -11.95,-3.633 -16.72,-4.371 -4.8,-0.711 -11.21,-1.102 -19.22,-1.102 z m 136.29,0 c -23.24,0 -42.57,8.602 -57.96,25.782 -15.43,17.191 -23.13,38.75 -23.13,64.691 0,29.059 8.59,53.199 25.78,72.5 17.19,19.258 38.67,28.91 64.53,28.91 23.21,0 42.54,-8.679 57.97,-25.941 15.39,-17.192 23.13,-38.75 23.13,-64.692 0,-29.058 -8.6,-53.238 -25.78,-72.5 -17.11,-19.179 -38.6,-28.75 -64.54,-28.75 z m 19.85,25.633 c 9.88,4.141 17.69,11.789 23.43,22.969 5.83,11.129 8.76,24.102 8.76,38.898 0,23.442 -5.63,42.231 -16.88,56.411 -11.25,14.14 -26.52,21.562 -45.78,22.191 -9.92,-4.07 -17.77,-11.719 -23.6,-22.969 -5.85,-11.179 -8.74,-24.179 -8.74,-39.07 0,-23.43 5.62,-42.18 16.87,-56.25 11.33,-14.063 26.64,-21.481 45.94,-22.18 z m 104.61,32.18 0,76.25 c 0,10 -0.59,18.91 -1.72,26.719 -1.17,7.89 -3.2,16.922 -6.1,27.031 l 44.54,0 0,-32.031 27.81,32.191 c 9.45,2.578 17.34,3.91 23.59,3.91 16.76,0 29.46,-5.242 38.13,-15.633 8.63,-10.429 12.97,-25.617 12.97,-45.617 l 0,-72.82 c 0,-15.313 0.46,-26.871 1.4,-34.68 0.94,-7.82 2.66,-14.179 5.16,-19.07 l -50.94,0 c 2.89,5.629 4.88,12.348 5.94,20.16 1.13,7.891 1.72,19.098 1.72,33.59 l 0,67.82 c 0,10.617 -2.5,18.508 -7.5,23.75 -4.92,5.309 -12.46,7.969 -22.66,7.969 -6.99,0 -16.09,-2.621 -27.34,-7.82 l -8.28,-3.75 0,-87.969 c 0,-14.289 0.54,-25.391 1.71,-33.281 1.14,-7.809 3.17,-14.649 6.1,-20.469 l -52.35,0 c 2.9,5.629 4.93,12.391 6.1,20.32 1.13,7.809 1.72,18.938 1.72,33.43 z m 259.53,-57.813 c -25.31,0 -46.1,8.481 -62.35,25.473 -16.25,16.949 -24.37,38.75 -24.37,65.309 0,28.949 7.11,53.011 21.41,72.191 14.25,19.258 32.07,28.91 53.43,28.91 l 0.47,0 c 20.94,0 37.03,-7.312 48.28,-21.883 11.33,-14.488 17.03,-35.226 17.03,-62.187 l 0,-16.563 -101.71,0 c 1.75,-16.679 6.6,-30.546 14.53,-41.558 10,-13.988 23.63,-20.942 40.93,-20.942 7.7,0 15.32,0.981 22.82,2.973 7.58,2.07 14.45,5 20.62,8.75 l -14.53,-35.16 c -8.05,-2.18 -14.49,-3.59 -19.37,-4.211 -4.93,-0.711 -10.63,-1.102 -17.19,-1.102 z m 23.9,116.723 c -0.11,16.02 -3.08,28.277 -8.9,36.719 -5.86,8.441 -14.34,12.66 -25.47,12.66 l 0.16,0 c -12.19,0 -21.57,-5.16 -28.13,-15.469 -5.31,-8.359 -8.55,-19.652 -9.69,-33.91"
         inkscape:connector-curvature="0"
         id="path22"
         style="fill:#432c22;fill-opacity:1;fill-rule:nonzero;stroke:none" /><path
         d="m 532.699,59.0312 0,67.4998 c 0,10.071 -0.429,18.508 -1.25,25.309 -0.75,6.871 -2.187,13.941 -4.379,21.25 l 87.969,0 -12.5,-26.25 c -6.25,3.199 -12.34,5.512 -18.277,6.871 -5.942,1.328 -13.09,2.039 -21.41,2.039 l -5.782,0 0,-52.66 52.032,0 -7.34,-12.9689 L 594.41,77 c -5.23,3.1992 -10.621,5.4609 -16.25,6.7109 -5.621,1.3282 -12.648,2.0391 -21.09,2.0391 l 0,-26.7188 c 0,-10.121 0.391,-18.6015 1.25,-25.4726 0.821,-6.7969 2.34,-13.8281 4.532,-21.0977 l -35.622,0 c 2.071,7.0703 3.469,14.0703 4.219,20.9375 0.821,6.8828 1.25,15.3907 1.25,25.6328 z M 661.84,9.96094 c -10.86,0 -19.219,2.34766 -25.16,7.03906 -5.86,4.6797 -8.75,11.2812 -8.75,19.8398 0,5.6993 2.031,11.0899 6.09,16.0899 4.14,5.082 9.769,9.1406 16.878,12.1914 l 32.813,13.4375 0,10.1523 c 0,6.1407 -1.949,10.9805 -5.781,14.5391 -3.75,3.629 -8.828,5.461 -15.16,5.461 -4.059,0 -8.04,-0.742 -11.872,-2.18 -3.75,-1.371 -7.929,-3.679 -12.5,-6.8826 l 6.09,21.4106 c 4.383,1.871 8.602,3.203 12.66,4.062 4.141,0.82 8.321,1.25 12.5,1.25 12.071,0 21.133,-3.199 27.192,-9.531 6.012,-6.25 9.058,-15.629 9.058,-28.1291 l 0,-43.5898 c 0,-9.3711 0.231,-16.4805 0.782,-21.25 0.621,-4.6914 1.718,-8.5195 3.281,-11.4102 l -26.25,0 0,10.6289 -17.34,-12.8086 -4.531,-0.32026 z m 21.871,19.37886 0,30.7813 -28.75,0 c -0.742,0 -1.641,-2.1094 -2.66,-6.25 -1.051,-4.1797 -1.563,-7.6602 -1.563,-10.4727 0,-5.2265 1.723,-9.1796 5.16,-11.8672 3.442,-2.621 8.512,-3.9101 15.313,-3.9101 4.258,0 8.32,0.5508 12.187,1.7187 l 0.313,0 z M 731.762,133.25 c 0,7.262 -0.391,13.32 -1.102,18.121 -0.621,4.77 -1.832,9.609 -3.59,14.527 l 15.782,3.133 15.937,3.278 c -1.801,-3.559 -3.051,-7.5 -3.75,-11.879 -0.738,-4.289 -1.09,-10.231 -1.09,-17.809 l 0,-37.5 16.403,19.059 c 5,1.449 9.878,2.191 14.687,2.191 12.5,0 22.109,-4.141 28.91,-12.34 6.871,-8.25 10.313,-19.9607 10.313,-35.1599 0,-20.4297 -6.102,-36.6406 -18.282,-48.5899 C 793.871,18.3984 777.422,12.4609 756.602,12.4609 l -29.532,0 c 1.758,3.4375 2.969,7.5391 3.59,12.3477 0.711,4.7617 1.102,11.5625 1.102,20.3125 l 0,88.1289 z M 768.629,27.7812 c 10.711,0 18.949,3.5899 24.691,10.7774 5.821,7.2617 8.75,17.582 8.75,30.9414 0,11.1289 -2.422,20 -7.191,26.5586 -4.801,6.5624 -11.25,9.8394 -19.367,9.8394 -4.813,0 -9.852,-1.007 -15.16,-2.968 l -6.403,-2.809 0,-70.621 c 4.141,-1.1797 9.063,-1.7188 14.68,-1.7188 z m 77.23,17.3399 0,46.25 c 0,5.9375 -0.39,11.2889 -1.089,16.0899 -0.629,4.769 -1.84,10.238 -3.598,16.41 l 27.027,0 0,-19.691 17.192,19.379 c 5.199,1.871 10.16,2.812 14.839,2.812 3.829,0 7.192,-0.742 10,-2.191 l -4.531,-24.059 -1.09,0.777 c -4.179,3.012 -9.14,4.532 -14.839,4.532 -4.301,0 -9.809,-1.559 -16.571,-4.68 l -5,-2.1914 0,-53.4375 c 0,-8.75 0.321,-15.5508 0.942,-20.3125 0.699,-4.6875 1.949,-8.8281 3.75,-12.3477 l -31.719,0 c 1.758,3.4375 3.008,7.5391 3.75,12.3477 0.629,4.7617 0.937,11.5625 0.937,20.3125 z m 76.911,0 0,46.25 c 0,5.9375 -0.391,11.2889 -1.09,16.0899 -0.739,4.769 -1.989,10.238 -3.75,16.41 l 31.871,0 c -1.789,-3.551 -3.039,-7.73 -3.75,-12.5 -0.742,-4.801 -1.09,-11.4804 -1.09,-19.9999 l 0,-46.25 c 0,-8.75 0.348,-15.5508 1.09,-20.3125 0.711,-4.6875 1.961,-8.8281 3.75,-12.3477 l -31.871,0 c 1.761,3.4375 3.011,7.5391 3.75,12.3477 0.699,4.7617 1.09,11.5625 1.09,20.3125 z M 933.238,170.43 c 4.141,0 7.703,-1.68 10.633,-5 2.891,-3.36 4.367,-7.461 4.367,-12.34 0,-4.809 -1.476,-8.871 -4.367,-12.192 -2.93,-3.359 -6.492,-5 -10.633,-5 -4.179,0 -7.726,1.641 -10.617,5 -2.93,3.321 -4.383,7.383 -4.383,12.192 0,4.879 1.453,8.98 4.383,12.34 2.891,3.32 6.438,5 10.617,5 z M 1040.39,13.25 c -5.12,-1.3281 -9.22,-2.2305 -12.34,-2.6602 -3.05,-0.3906 -6.68,-0.62886 -10.94,-0.62886 -14.81,0 -27.11,5.19926 -36.88,15.62886 -9.8,10.3907 -14.679,23.4805 -14.679,39.2188 0,17.582 5.39,32.2226 16.25,43.9024 10.929,11.758 24.529,17.66 40.779,17.66 4.37,0 8.16,-0.16 11.4,-0.473 3.32,-0.308 7.86,-1.007 13.6,-2.027 l -1.1,-25.621 c -4.18,4.371 -8.28,7.531 -12.34,9.531 -4.06,1.949 -8.52,2.969 -13.28,2.969 -9.92,0 -17.77,-3.719 -23.59,-11.1016 -5.75,-7.4179 -8.598,-17.4179 -8.598,-30 0,-12.9296 3.047,-23.1992 9.219,-30.7773 6.129,-7.6211 14.379,-11.4102 24.689,-11.4102 3.63,0 7.34,0.5079 11.09,1.5703 3.83,1.0079 8.99,2.8477 15.47,5.4688 l -8.75,-21.25 z m 55.39,-3.28906 c -10.86,0 -19.22,2.34766 -25.16,7.03906 -5.85,4.6797 -8.74,11.2812 -8.74,19.8398 0,5.6993 2.03,11.0899 6.09,16.0899 4.14,5.082 9.76,9.1406 16.87,12.1914 l 32.82,13.4375 0,10.1523 c 0,6.1407 -1.96,10.9805 -5.78,14.5391 -3.76,3.629 -8.83,5.461 -15.16,5.461 -4.06,0 -8.05,-0.742 -11.88,-2.18 -3.75,-1.371 -7.93,-3.679 -12.5,-6.8826 l 6.1,21.4106 c 4.37,1.871 8.59,3.203 12.65,4.062 4.14,0.82 8.32,1.25 12.5,1.25 12.07,0 21.14,-3.199 27.19,-9.531 6.02,-6.25 9.06,-15.629 9.06,-28.1291 l 0,-43.5898 c 0,-9.3711 0.24,-16.4805 0.78,-21.25 0.63,-4.6914 1.72,-8.5195 3.29,-11.4102 l -26.25,0 0,10.6289 -17.35,-12.8086 -4.53,-0.32026 z m 21.88,19.37886 0,30.7813 -28.75,0 c -0.75,0 -1.64,-2.1094 -2.66,-6.25 -1.05,-4.1797 -1.56,-7.6602 -1.56,-10.4727 0,-5.2265 1.72,-9.1796 5.15,-11.8672 3.44,-2.621 8.52,-3.9101 15.32,-3.9101 4.25,0 8.32,0.5508 12.18,1.7187 l 0.32,0 z m 76.79,-19.37886 c -8.75,0 -15.11,2.57816 -19.06,7.82026 -3.98,5.1876 -5.94,13.5079 -5.94,25 l 0,65.7778 -15.78,0 37.81,40 0.16,0 0,-24.688 25.94,0 0,-15.312 -25.94,0 0,-56.559 c 0,-7.5 1.25,-13.1289 3.75,-16.8789 2.58,-3.6719 6.45,-5.4727 11.56,-5.4727 3.21,0 6.14,0.3516 8.75,1.1016 2.58,0.6992 5.78,2.0312 9.53,3.8984 l -8.9,-21.3984 c -3.87,-1.25 -7.27,-2.0703 -10.16,-2.5 -2.93,-0.5117 -6.83,-0.78906 -11.72,-0.78906 z m 42.07,35.16016 0,46.25 c 0,5.9375 -0.39,11.2889 -1.09,16.0899 -0.74,4.769 -1.99,10.238 -3.75,16.41 l 31.87,0 c -1.79,-3.551 -3.04,-7.73 -3.75,-12.5 -0.74,-4.801 -1.09,-11.4804 -1.09,-19.9999 l 0,-46.25 c 0,-8.75 0.35,-15.5508 1.09,-20.3125 0.71,-4.6875 1.96,-8.8281 3.75,-12.3477 l -31.87,0 c 1.76,3.4375 3.01,7.5391 3.75,12.3477 0.7,4.7617 1.09,11.5625 1.09,20.3125 z m 10.47,125.3089 c 4.14,0 7.7,-1.68 10.63,-5 2.89,-3.36 4.37,-7.461 4.37,-12.34 0,-4.809 -1.48,-8.871 -4.37,-12.192 -2.93,-3.359 -6.49,-5 -10.63,-5 -4.18,0 -7.73,1.641 -10.62,5 -2.93,3.321 -4.38,7.383 -4.38,12.192 0,4.879 1.45,8.98 4.38,12.34 2.89,3.32 6.44,5 10.62,5 z M 1327.77,9.96094 c -14.06,0 -25.78,5.19926 -35.15,15.62886 -9.38,10.3907 -14.07,23.4805 -14.07,39.2188 0,17.6914 5.2,32.3828 15.63,44.0624 10.39,11.641 23.44,17.5 39.06,17.5 14.14,0 25.86,-5.269 35.16,-15.781 9.37,-10.43 14.06,-23.5197 14.06,-39.2189 0,-17.6211 -5.23,-32.2695 -15.62,-43.9102 -10.32,-11.6797 -23.36,-17.49996 -39.07,-17.49996 z m 11.88,15.62886 c 6.01,2.5 10.82,7.1094 14.37,13.9102 3.52,6.75 5.32,14.6016 5.32,23.5898 0,14.2618 -3.44,25.6602 -10.32,34.2188 -6.79,8.5114 -16.05,13.0114 -27.81,13.4414 -5.94,-2.43 -10.7,-7.039 -14.22,-13.9102 -3.55,-6.8007 -5.31,-14.6484 -5.31,-23.5898 0,-14.3008 3.36,-25.7109 10.16,-34.2188 6.87,-8.5624 16.13,-13.0507 27.81,-13.4414 z m 63.55,19.5313 0,46.25 c 0,6.0195 -0.39,11.4489 -1.09,16.2499 -0.63,4.77 -1.84,10.199 -3.59,16.25 l 26.87,0 0,-19.371 17.03,19.531 c 5.7,1.559 10.47,2.34 14.22,2.34 10.2,0 17.89,-3.199 23.13,-9.531 5.31,-6.25 7.96,-15.43 7.96,-27.5002 l 0,-44.2187 c 0,-9.3711 0.24,-16.4805 0.79,-21.25 0.62,-4.6914 1.64,-8.5195 3.12,-11.4102 l -30.94,0 c 1.76,3.4375 2.97,7.5391 3.6,12.3477 0.7,4.7617 1.09,11.5625 1.09,20.3125 l 0,41.0898 c 0,6.4493 -1.52,11.25 -4.53,14.3791 -3.05,3.199 -7.62,4.84 -13.75,4.84 -4.3,0 -9.84,-1.559 -16.72,-4.68 l -5,-2.1914 0,-53.4375 c 0,-8.75 0.35,-15.5508 1.09,-20.3125 0.71,-4.6875 1.96,-8.8281 3.75,-12.3477 l -31.71,0 c 1.75,3.4375 2.96,7.5391 3.59,12.3477 0.7,4.7617 1.09,11.5625 1.09,20.3125 z m 183.79,69.0589 c 0,9.261 3.32,16.961 10,23.129 6.64,6.25 15,9.371 25,9.371 10,0 18.32,-2.891 25,-8.59 6.64,-5.738 10,-12.969 10,-21.719 0,-7.301 -2.03,-13.59 -6.09,-18.9101 -2.11,-2.7304 -4.69,-5.1523 -7.81,-7.3398 l 6.56,-3.4414 c 7.26,-3.75 13.28,-7.3399 17.97,-10.7813 l 14.84,-10.9375 c 2.5,7.2696 4.57,16.6094 6.25,27.9688 1.56,10.8203 2.34,21.9223 2.34,33.2813 -3.67,0 -7.5,-0.391 -11.56,-1.09 -4.69,-0.859 -8.4,-1.84 -11.09,-2.973 l 0,21.411 70.94,0 0,-21.411 c -2.82,1.133 -6.57,2.071 -11.25,2.813 -4.61,0.82 -8.87,1.25 -12.82,1.25 l -3.9,0 c 0.39,-9.922 -0.32,-20.621 -2.19,-32.1798 -2.3,-15.6328 -6.06,-29.3007 -11.25,-40.9414 l 12.5,-9.8398 c 5.39,-4.3008 11.48,-8.2891 18.28,-12.0391 6.88,-3.6718 12.66,-6.0898 17.34,-7.3398 L 1724.8,11.2109 c -3.86,0.9375 -8.28,2.6602 -13.28,5.1602 -4.92,2.5 -9.18,5.1992 -12.81,8.1289 l -12.5,10 c -4.92,-5.2383 -10.86,-9.8516 -17.81,-13.9102 -12.42,-7.1093 -25.24,-10.62886 -38.44,-10.62886 -15.74,0 -28.87,3.98826 -39.37,12.03906 -10.43,8 -15.63,18.1211 -15.63,30.3086 0,10.082 3.36,18.793 10.16,26.0898 3.94,4.2618 8.94,7.9727 15,11.1016 l -3.28,2.8086 c -6.57,5.9414 -9.85,13.2034 -9.85,21.8714 z m 44.53,-84.5316 c 8.64,0 17.43,2.6602 26.41,7.9727 4.69,2.8086 8.79,5.9375 12.34,9.3789 l -17.18,12.9609 c -3.99,2.8203 -8.91,5.711 -14.85,8.75 -7.3,3.3203 -13.71,6.4883 -19.22,9.5391 -4.8,-2.4297 -8.75,-5 -11.87,-7.8203 -5.94,-5.3086 -8.91,-11.6797 -8.91,-19.0586 0,-6.25 3.17,-11.4805 9.53,-15.6211 6.25,-4.0703 14.14,-6.1016 23.75,-6.1016 z m -24.06,84.9996 c 0,-4.179 1.41,-7.617 4.22,-10.308 2.81,-2.738 6.29,-4.059 10.47,-4.059 5,0 8.67,1.25 11.09,3.75 2.5,2.5 3.75,6.321 3.75,11.559 0,3.512 -1.4,6.48 -4.22,8.91 -2.81,2.5 -6.36,3.75 -10.62,3.75 -4.18,0 -7.66,-1.328 -10.47,-3.91 -2.81,-2.5 -4.22,-5.738 -4.22,-9.692 z m 227.89,-55.6168 0,67.4998 c 0,10.071 -0.43,18.508 -1.25,25.309 -0.86,6.871 -2.34,13.941 -4.53,21.25 l 35.63,0 c -2.11,-7.192 -3.56,-14.18 -4.38,-20.942 -0.74,-6.796 -1.09,-15.308 -1.09,-25.617 l 0,-67.4998 c 0,-10.121 0.35,-18.6015 1.09,-25.4726 0.82,-6.7969 2.34,-13.8281 4.53,-21.0977 l -35.62,0 c 2.07,7.0703 3.51,14.0703 4.37,20.9375 0.82,6.7618 1.25,15.3125 1.25,25.6328 z m 59.65,-13.9101 0,46.25 c 0,6.0195 -0.39,11.4489 -1.09,16.2499 -0.63,4.77 -1.84,10.199 -3.6,16.25 l 26.88,0 0,-19.371 17.03,19.531 c 5.7,1.559 10.47,2.34 14.22,2.34 10.19,0 17.89,-3.199 23.12,-9.531 5.32,-6.25 7.97,-15.43 7.97,-27.5002 l 0,-44.2187 c 0,-9.3711 0.24,-16.4805 0.78,-21.25 0.63,-4.6914 1.64,-8.5195 3.13,-11.4102 l -30.94,0 c 1.76,3.4375 2.97,7.5391 3.59,12.3477 0.71,4.7617 1.1,11.5625 1.1,20.3125 l 0,41.0898 c 0,6.4493 -1.53,11.25 -4.53,14.3791 -3.05,3.199 -7.62,4.84 -13.75,4.84 -4.3,0 -9.85,-1.559 -16.72,-4.68 l -5,-2.1914 0,-53.4375 c 0,-8.75 0.35,-15.5508 1.09,-20.3125 0.7,-4.6875 1.95,-8.8281 3.75,-12.3477 l -31.72,0 c 1.76,3.4375 2.97,7.5391 3.6,12.3477 0.7,4.7617 1.09,11.5625 1.09,20.3125 z m 163.05,54.9999 c -3.13,3.75 -6.37,6.449 -9.69,8.129 -3.24,1.641 -6.88,2.5 -10.94,2.5 -4.37,0 -8.08,-1.18 -11.09,-3.441 -2.93,-2.309 -4.38,-5.239 -4.38,-8.7504 0,-3.4375 0.98,-6.5274 2.97,-9.2188 1.96,-2.7382 5.67,-6.1679 11.1,-10.3086 9.06,-7.1093 15.39,-13.2812 19.06,-18.6015 3.63,-5.2305 5.47,-10.8985 5.47,-17.0313 0,-9.6093 -3.36,-17.5781 -10,-23.8984 -6.68,-6.3711 -15.08,-9.53906 -25.16,-9.53906 -5.55,0 -10.27,0.39066 -14.22,1.09766 -3.98,0.6211 -8.83,1.793 -14.53,3.5898 l 0,26.5625 c 4.38,-5.1093 8.67,-8.9804 12.97,-11.5625 4.26,-2.5 8.67,-3.75 13.28,-3.75 4.38,0 7.97,1.25 10.78,3.75 2.89,2.5821 4.38,5.8633 4.38,9.8516 0,3.1211 -1.21,6.1289 -3.6,9.0586 -2.18,2.8906 -6.56,6.793 -13.12,11.7226 -8.13,6.4376 -13.91,12.2188 -17.35,17.3399 -3.24,5 -4.84,10.6289 -4.84,16.8789 0,9.141 3.63,16.75 10.94,22.809 7.26,6.011 16.4,9.062 27.34,9.062 4.06,0 7.54,-0.391 10.47,-1.09 3.01,-0.633 6.41,-1.84 10.16,-3.601 l 0,-21.559 z m 49.84,-90.16006 c -8.75,0 -15.12,2.57816 -19.06,7.82026 -3.99,5.1876 -5.94,13.5079 -5.94,25 l 0,65.7778 -15.78,0 37.81,40 0.16,0 0,-24.688 25.94,0 0,-15.312 -25.94,0 0,-56.559 c 0,-7.5 1.25,-13.1289 3.75,-16.8789 2.58,-3.6719 6.44,-5.4727 11.56,-5.4727 3.2,0 6.13,0.3516 8.75,1.1016 2.58,0.6992 5.78,2.0312 9.53,3.8984 l -8.9,-21.3984 c -3.87,-1.25 -7.27,-2.0703 -10.16,-2.5 -2.93,-0.5117 -6.84,-0.78906 -11.72,-0.78906 z m 67.85,0 c -10.86,0 -19.22,2.34766 -25.15,7.03906 -5.86,4.6797 -8.75,11.2812 -8.75,19.8398 0,5.6993 2.03,11.0899 6.09,16.0899 4.14,5.082 9.77,9.1406 16.87,12.1914 l 32.82,13.4375 0,10.1523 c 0,6.1407 -1.96,10.9805 -5.78,14.5391 -3.75,3.629 -8.83,5.461 -15.16,5.461 -4.06,0 -8.05,-0.742 -11.88,-2.18 -3.75,-1.371 -7.92,-3.679 -12.5,-6.8826 l 6.1,21.4106 c 4.37,1.871 8.59,3.203 12.65,4.062 4.15,0.82 8.33,1.25 12.5,1.25 12.07,0 21.14,-3.199 27.19,-9.531 6.02,-6.25 9.06,-15.629 9.06,-28.1291 l 0,-43.5898 c 0,-9.3711 0.24,-16.4805 0.79,-21.25 0.62,-4.6914 1.71,-8.5195 3.28,-11.4102 l -26.25,0 0,10.6289 -17.35,-12.8086 -4.53,-0.32026 z m 21.88,19.37886 0,30.7813 -28.75,0 c -0.75,0 -1.64,-2.1094 -2.66,-6.25 -1.05,-4.1797 -1.56,-7.6602 -1.56,-10.4727 0,-5.2265 1.72,-9.1796 5.15,-11.8672 3.44,-2.621 8.52,-3.9101 15.32,-3.9101 4.26,0 8.32,0.5508 12.18,1.7187 l 0.32,0 z m 49.14,15.7813 0,88.1289 c 0,7.262 -0.39,13.32 -1.1,18.121 -0.62,4.77 -1.83,9.609 -3.59,14.527 l 15.94,3.133 15.78,3.278 c -1.8,-5 -3.05,-10.629 -3.75,-16.879 -0.63,-6.25 -0.94,-14.758 -0.94,-25.469 l 0,-84.8399 c 0,-8.75 0.31,-15.5508 0.94,-20.3125 0.7,-4.6875 1.95,-8.8281 3.75,-12.3477 l -31.72,0 c 1.76,3.4375 3.01,7.5391 3.75,12.3477 0.63,4.7617 0.94,11.5625 0.94,20.3125 z m 50.04,0 0,88.1289 c 0,7.262 -0.39,13.32 -1.1,18.121 -0.62,4.77 -1.83,9.609 -3.59,14.527 l 15.94,3.133 15.78,3.278 c -1.8,-5 -3.05,-10.629 -3.75,-16.879 -0.63,-6.25 -0.94,-14.758 -0.94,-25.469 l 0,-84.8399 c 0,-8.75 0.31,-15.5508 0.94,-20.3125 0.7,-4.6875 1.95,-8.8281 3.75,-12.3477 l -31.72,0 c 1.76,3.4375 3.01,7.5391 3.75,12.3477 0.62,4.7617 0.94,11.5625 0.94,20.3125 z m 75.82,-35.16016 c -10.86,0 -19.22,2.34766 -25.16,7.03906 -5.86,4.6797 -8.75,11.2812 -8.75,19.8398 0,5.6993 2.03,11.0899 6.09,16.0899 4.15,5.082 9.77,9.1406 16.88,12.1914 l 32.81,13.4375 0,10.1523 c 0,6.1407 -1.95,10.9805 -5.78,14.5391 -3.75,3.629 -8.83,5.461 -15.16,5.461 -4.06,0 -8.04,-0.742 -11.87,-2.18 -3.75,-1.371 -7.93,-3.679 -12.5,-6.8826 l 6.09,21.4106 c 4.38,1.871 8.6,3.203 12.66,4.062 4.14,0.82 8.32,1.25 12.5,1.25 12.07,0 21.13,-3.199 27.19,-9.531 6.01,-6.25 9.06,-15.629 9.06,-28.1291 l 0,-43.5898 c 0,-9.3711 0.23,-16.4805 0.78,-21.25 0.63,-4.6914 1.72,-8.5195 3.28,-11.4102 l -26.25,0 0,10.6289 -17.34,-12.8086 -4.53,-0.32026 z m 21.87,19.37886 0,30.7813 -28.75,0 c -0.74,0 -1.64,-2.1094 -2.65,-6.25 -1.06,-4.1797 -1.57,-7.6602 -1.57,-10.4727 0,-5.2265 1.72,-9.1796 5.16,-11.8672 3.44,-2.621 8.52,-3.9101 15.31,-3.9101 4.26,0 8.32,0.5508 12.19,1.7187 l 0.31,0 z m 76.8,-19.37886 c -8.75,0 -15.12,2.57816 -19.06,7.82026 -3.99,5.1876 -5.94,13.5079 -5.94,25 l 0,65.7778 -15.78,0 37.81,40 0.16,0 0,-24.688 25.93,0 0,-15.312 -25.93,0 0,-56.559 c 0,-7.5 1.25,-13.1289 3.75,-16.8789 2.57,-3.6719 6.44,-5.4727 11.56,-5.4727 3.2,0 6.13,0.3516 8.75,1.1016 2.58,0.6992 5.78,2.0312 9.53,3.8984 L 2493.16,13.25 c -3.86,-1.25 -7.26,-2.0703 -10.15,-2.5 -2.93,-0.5117 -6.84,-0.78906 -11.72,-0.78906 z m 42.07,35.16016 0,46.25 c 0,5.9375 -0.39,11.2889 -1.09,16.0899 -0.75,4.769 -2,10.238 -3.75,16.41 l 31.87,0 c -1.8,-3.551 -3.05,-7.73 -3.75,-12.5 -0.74,-4.801 -1.09,-11.4804 -1.09,-19.9999 l 0,-46.25 c 0,-8.75 0.35,-15.5508 1.09,-20.3125 0.7,-4.6875 1.95,-8.8281 3.75,-12.3477 l -31.87,0 c 1.75,3.4375 3,7.5391 3.75,12.3477 0.7,4.7617 1.09,11.5625 1.09,20.3125 z m 10.47,125.3089 c 4.14,0 7.69,-1.68 10.62,-5 2.89,-3.36 4.38,-7.461 4.38,-12.34 0,-4.809 -1.49,-8.871 -4.38,-12.192 -2.93,-3.359 -6.48,-5 -10.62,-5 -4.18,0 -7.74,1.641 -10.63,5 -2.93,3.321 -4.37,7.383 -4.37,12.192 0,4.879 1.44,8.98 4.37,12.34 2.89,3.32 6.45,5 10.63,5 z M 2604.57,9.96094 c -14.06,0 -25.78,5.19926 -35.16,15.62886 -9.37,10.3907 -14.06,23.4805 -14.06,39.2188 0,17.6914 5.2,32.3828 15.63,44.0624 10.39,11.641 23.43,17.5 39.06,17.5 14.14,0 25.86,-5.269 35.16,-15.781 9.37,-10.43 14.06,-23.5197 14.06,-39.2189 0,-17.6211 -5.24,-32.2695 -15.63,-43.9102 -10.31,-11.6797 -23.36,-17.49996 -39.06,-17.49996 z m 11.88,15.62886 c 6.01,2.5 10.82,7.1094 14.37,13.9102 3.52,6.75 5.31,14.6016 5.31,23.5898 0,14.2618 -3.43,25.6602 -10.31,34.2188 -6.8,8.5114 -16.05,13.0114 -27.81,13.4414 -5.94,-2.43 -10.71,-7.039 -14.22,-13.9102 -3.56,-6.8007 -5.31,-14.6484 -5.31,-23.5898 0,-14.3008 3.36,-25.7109 10.15,-34.2188 6.88,-8.5624 16.14,-13.0507 27.82,-13.4414 z m 63.59,19.5313 0,46.25 c 0,6.0195 -0.39,11.4489 -1.09,16.2499 -0.63,4.77 -1.84,10.199 -3.6,16.25 l 26.88,0 0,-19.371 17.03,19.531 c 5.7,1.559 10.47,2.34 14.22,2.34 10.19,0 17.89,-3.199 23.12,-9.531 5.31,-6.25 7.97,-15.43 7.97,-27.5002 l 0,-44.2187 c 0,-9.3711 0.23,-16.4805 0.78,-21.25 0.63,-4.6914 1.64,-8.5195 3.13,-11.4102 l -30.94,0 c 1.76,3.4375 2.97,7.5391 3.59,12.3477 0.71,4.7617 1.1,11.5625 1.1,20.3125 l 0,41.0898 c 0,6.4493 -1.53,11.25 -4.53,14.3791 -3.05,3.199 -7.62,4.84 -13.75,4.84 -4.3,0 -9.85,-1.559 -16.72,-4.68 l -5,-2.1914 0,-53.4375 c 0,-8.75 0.35,-15.5508 1.09,-20.3125 0.7,-4.6875 1.95,-8.8281 3.75,-12.3477 l -31.72,0 c 1.76,3.4375 2.97,7.5391 3.6,12.3477 0.7,4.7617 1.09,11.5625 1.09,20.3125"
         inkscape:connector-curvature="0"
         id="path24"
         style="fill:#002d62;fill-opacity:1;fill-rule:nonzero;stroke:none" /><path
         d="m 305.66,299.961 c -22.73,0 -41.64,7.5 -56.711,22.5 -15.121,15.078 -22.66,33.988 -22.66,56.719 0,24.769 8.281,45.351 24.84,61.718 16.641,16.454 37.543,24.692 62.66,24.692 7.582,0 14.141,-0.551 19.691,-1.559 5.622,-0.941 12.571,-2.82 20.93,-5.633 l 0,-26.558 c -8.039,5.308 -15.461,8.98 -22.34,11.09 -6.8,2.07 -14.648,3.129 -23.59,3.129 -15.941,0 -29.218,-5.899 -39.851,-17.661 -10.539,-11.796 -15.777,-26.558 -15.777,-44.367 0,-18.441 4.878,-33.832 14.687,-46.101 9.883,-12.301 22.231,-18.43 37.031,-18.43 l 0.16,0 c 11.75,0 22.891,1.871 33.43,5.621 l 0,11.25 c 0,10 -0.43,18.359 -1.25,25.16 -0.738,6.867 -2.18,13.981 -4.371,21.399 l 35.621,0 c -2.109,-7.18 -3.551,-14.219 -4.371,-21.09 -0.738,-6.801 -1.09,-15.27 -1.09,-25.469 l 0,-2.973 c 0,-5.226 0.153,-9.527 0.461,-12.968 0.391,-3.36 1.141,-6.789 2.192,-10.309 -17.5,-6.801 -37.461,-10.16 -59.84,-10.16 l 0.148,0 z m 89.77,35.16 0,46.25 c 0,5.938 -0.391,11.289 -1.09,16.09 -0.629,4.769 -1.84,10.238 -3.602,16.41 l 27.032,0 0,-19.691 17.191,19.379 c 5.199,1.871 10.16,2.812 14.84,2.812 3.828,0 7.187,-0.742 10,-2.191 l -4.531,-24.059 -1.09,0.777 c -4.18,3.012 -9.141,4.532 -14.84,4.532 -4.301,0 -9.809,-1.559 -16.57,-4.68 l -5,-2.191 0,-53.438 c 0,-8.75 0.32,-15.551 0.941,-20.312 0.699,-4.688 1.949,-8.829 3.75,-12.348 l -31.723,0 c 1.762,3.437 3.012,7.539 3.75,12.348 0.633,4.761 0.942,11.562 0.942,20.312 z m 102.66,-35.16 c -10.86,0 -19.219,2.348 -25.16,7.039 -5.86,4.68 -8.75,11.281 -8.75,19.84 0,5.699 2.031,11.09 6.09,16.09 4.14,5.082 9.769,9.14 16.878,12.191 l 32.813,13.438 0,10.152 c 0,6.141 -1.949,10.98 -5.781,14.539 -3.75,3.629 -8.828,5.461 -15.16,5.461 -4.059,0 -8.04,-0.742 -11.872,-2.18 -3.75,-1.371 -7.929,-3.679 -12.5,-6.883 l 6.09,21.411 c 4.383,1.871 8.602,3.203 12.66,4.062 4.141,0.82 8.321,1.25 12.5,1.25 12.071,0 21.133,-3.199 27.192,-9.531 6.012,-6.25 9.058,-15.629 9.058,-28.129 l 0,-43.59 c 0,-9.371 0.231,-16.48 0.782,-21.25 0.621,-4.691 1.718,-8.519 3.281,-11.41 l -26.25,0 0,10.629 -17.34,-12.809 -4.531,-0.32 z m 21.871,19.379 0,30.781 -28.75,0 c -0.742,0 -1.641,-2.109 -2.66,-6.25 -1.051,-4.18 -1.563,-7.66 -1.563,-10.473 0,-5.226 1.723,-9.179 5.16,-11.867 3.442,-2.621 8.512,-3.91 15.313,-3.91 4.258,0 8.32,0.551 12.187,1.719 l 0.313,0 z m 49.301,15.781 0,46.25 c 0,6.02 -0.391,11.449 -1.102,16.25 -0.621,4.77 -1.832,10.199 -3.59,16.25 l 26.879,0 0,-19.371 17.031,19.531 c 5.7,1.559 10.469,2.34 14.219,2.34 10.192,0 17.891,-3.199 23.121,-9.531 5.309,-6.25 7.969,-15.43 7.969,-27.5 l 0,-44.219 c 0,-9.371 0.231,-16.48 0.781,-21.25 0.629,-4.691 1.641,-8.519 3.129,-11.41 l -30.937,0 c 1.758,3.437 2.968,7.539 3.59,12.348 0.699,4.761 1.097,11.562 1.097,20.312 l 0,41.09 c 0,6.449 -1.527,11.25 -4.539,14.379 -3.039,3.199 -7.609,4.84 -13.75,4.84 -4.289,0 -9.84,-1.559 -16.711,-4.68 l -5,-2.191 0,-53.438 c 0,-8.75 0.352,-15.551 1.09,-20.312 0.699,-4.688 1.949,-8.829 3.75,-12.348 l -31.719,0 c 1.758,3.437 2.969,7.539 3.59,12.348 0.711,4.761 1.102,11.562 1.102,20.312 z m 111.828,0 0,46.25 c 0,5.938 -0.391,11.289 -1.09,16.09 -0.738,4.769 -1.988,10.238 -3.75,16.41 l 31.871,0 c -1.793,-3.551 -3.043,-7.73 -3.742,-12.5 -0.75,-4.801 -1.098,-11.48 -1.098,-20 l 0,-46.25 c 0,-8.75 0.348,-15.551 1.098,-20.312 0.699,-4.688 1.949,-8.829 3.742,-12.348 l -31.871,0 c 1.762,3.437 3.012,7.539 3.75,12.348 0.699,4.761 1.09,11.562 1.09,20.312 z m 10.469,125.309 c 4.14,0 7.703,-1.68 10.632,-5 2.887,-3.36 4.368,-7.461 4.368,-12.34 0,-4.809 -1.481,-8.871 -4.368,-12.192 -2.929,-3.359 -6.492,-5 -10.632,-5 -4.18,0 -7.731,1.641 -10.618,5 -2.929,3.321 -4.382,7.383 -4.382,12.192 0,4.879 1.453,8.98 4.382,12.34 2.887,3.32 6.438,5 10.618,5 z M 759.18,299.961 c -8.75,0 -15.121,2.578 -19.059,7.82 -3.992,5.188 -5.941,13.508 -5.941,25 l 0,65.778 -15.782,0 37.813,40 0.16,0 0,-24.688 25.93,0 0,-15.312 -25.93,0 0,-56.559 c 0,-7.5 1.25,-13.129 3.75,-16.879 2.578,-3.672 6.438,-5.473 11.559,-5.473 3.199,0 6.129,0.352 8.75,1.102 2.582,0.699 5.781,2.031 9.531,3.898 l -8.91,-21.398 c -3.86,-1.25 -7.262,-2.07 -10.153,-2.5 -2.929,-0.512 -6.839,-0.789 -11.718,-0.789 z m 87.699,0 c -15.32,0 -27.93,5.16 -37.82,15.469 -9.797,10.32 -14.68,23.519 -14.68,39.691 0,17.5 4.293,32.07 12.961,43.75 8.64,11.641 19.422,17.5 32.351,17.5 l 0.309,0 c 12.699,0 22.5,-4.449 29.379,-13.281 6.871,-8.75 10.312,-21.328 10.312,-37.66 l 0,-10 -61.882,0 c 1.14,-10.11 4.101,-18.551 8.91,-25.309 6.011,-8.441 14.301,-12.66 24.84,-12.66 4.691,0 9.3,0.551 13.91,1.719 4.57,1.25 8.672,3.011 12.34,5.32 l -8.75,-21.25 c -4.918,-1.328 -8.86,-2.23 -11.868,-2.66 -2.929,-0.391 -6.371,-0.629 -10.312,-0.629 z m 14.531,70.937 c -0.121,9.692 -1.961,17.071 -5.469,22.192 -3.562,5.082 -8.671,7.66 -15.32,7.66 -7.422,0 -13.082,-3.129 -17.031,-9.379 -3.238,-5.121 -5.231,-11.949 -5.93,-20.473 l 43.75,0 z m 28.469,-108.75 c 6.641,11.25 11.723,24.34 15.16,39.223 2.5,11.328 2.852,22.109 1.09,32.34 l 31.41,0 c -1.25,-11.481 -4.18,-22.18 -8.75,-32.18 -6.367,-13.953 -14.449,-27.07 -24.219,-39.383 l -14.691,0 z m 309.421,9.692 c -12.93,-5.078 -27.66,-2.891 -44.22,6.558 -10.24,5.942 -19.53,13.832 -27.97,23.602 -6.25,-1.328 -12.77,-2.039 -19.53,-2.039 -22.74,0 -41.64,7.969 -56.72,23.91 -15,16.02 -22.5,36.09 -22.5,60.16 0,23.43 8.01,42.848 24.06,58.278 16.02,15.511 36.13,23.281 60.31,23.281 22.7,0 41.57,-8.051 56.57,-24.059 15.08,-15.941 22.65,-36.019 22.65,-60.16 0,-23.242 -8.04,-42.621 -24.06,-58.121 -3.44,-3.441 -7.11,-6.488 -10.94,-9.07 4.38,-7.5 9.85,-14.719 16.41,-21.719 8.75,-9.57 17.38,-16.441 25.94,-20.621 z m -91.72,174.219 c -15,0 -27.58,-5.547 -37.66,-16.559 -10,-11.059 -15,-24.93 -15,-41.57 0,-19.61 5.47,-35.899 16.41,-48.899 11.01,-13.051 24.84,-19.531 41.4,-19.531 15.08,0 27.66,5.5 37.66,16.559 10,11.011 15,24.839 15,41.402 0,19.687 -5.55,36.019 -16.56,49.07 -10.94,13 -24.69,19.528 -41.25,19.528 z m 128.83,-64.688 0,-41.562 c 0,-6.489 1.44,-11.25 4.37,-14.379 3.01,-3.121 7.54,-4.68 13.6,-4.68 4.88,0 10.7,1.32 17.5,4.059 l 3.59,1.402 0,55.16 c 0,6.02 -0.39,11.449 -1.09,16.25 -0.63,4.77 -1.84,10.199 -3.6,16.25 l 31.88,0 c -1.8,-3.551 -3.05,-7.73 -3.75,-12.5 -0.75,-4.801 -1.1,-11.48 -1.1,-20 l 0,-46.25 c 0,-8.75 0.35,-15.551 1.1,-20.312 0.7,-4.688 1.95,-8.829 3.75,-12.348 l -25.94,0 0,18.91 -17.66,-19.062 c -6.36,-1.559 -11.09,-2.348 -14.22,-2.348 -10.11,0 -17.77,2.66 -22.96,7.969 -5.24,5.32 -7.82,13.05 -7.82,23.281 l 0,50.16 c 0,5.938 -0.39,11.289 -1.09,16.09 -0.63,4.769 -1.84,10.238 -3.59,16.41 l 31.87,0 c -1.8,-3.551 -3.09,-7.73 -3.91,-12.5 -0.62,-4.801 -0.93,-11.48 -0.93,-20 z m 117.69,-81.41 c -10.86,0 -19.22,2.348 -25.15,7.039 -5.86,4.68 -8.75,11.281 -8.75,19.84 0,5.699 2.03,11.09 6.09,16.09 4.14,5.082 9.76,9.14 16.87,12.191 l 32.82,13.438 0,10.152 c 0,6.141 -1.96,10.98 -5.78,14.539 -3.75,3.629 -8.83,5.461 -15.16,5.461 -4.06,0 -8.05,-0.742 -11.88,-2.18 -3.75,-1.371 -7.93,-3.679 -12.5,-6.883 l 6.1,21.411 c 4.37,1.871 8.59,3.203 12.65,4.062 4.14,0.82 8.32,1.25 12.5,1.25 12.07,0 21.14,-3.199 27.19,-9.531 6.02,-6.25 9.06,-15.629 9.06,-28.129 l 0,-43.59 c 0,-9.371 0.24,-16.48 0.79,-21.25 0.62,-4.691 1.71,-8.519 3.28,-11.41 l -26.25,0 0,10.629 -17.35,-12.809 -4.53,-0.32 z m 21.88,19.379 0,30.781 -28.75,0 c -0.75,0 -1.64,-2.109 -2.66,-6.25 -1.05,-4.18 -1.56,-7.66 -1.56,-10.473 0,-5.226 1.72,-9.179 5.15,-11.867 3.44,-2.621 8.52,-3.91 15.32,-3.91 4.25,0 8.32,0.551 12.18,1.719 l 0.32,0 z m 49.76,15.781 0,46.25 c 0,5.938 -0.39,11.289 -1.09,16.09 -0.63,4.769 -1.84,10.238 -3.6,16.41 l 27.04,0 0,-19.691 17.18,19.379 c 5.2,1.871 10.16,2.812 14.85,2.812 3.83,0 7.18,-0.742 10,-2.191 l -4.53,-24.059 -1.1,0.777 c -4.18,3.012 -9.14,4.532 -14.84,4.532 -4.3,0 -9.81,-1.559 -16.56,-4.68 l -5,-2.191 0,-53.438 c 0,-8.75 0.31,-15.551 0.93,-20.312 0.71,-4.688 1.96,-8.829 3.75,-12.348 l -31.72,0 c 1.76,3.437 3.01,7.539 3.75,12.348 0.63,4.761 0.94,11.562 0.94,20.312 z m 104.53,-35.16 c -8.75,0 -15.11,2.578 -19.06,7.82 -3.98,5.188 -5.94,13.508 -5.94,25 l 0,65.778 -15.78,0 37.81,40 0.16,0 0,-24.688 25.94,0 0,-15.312 -25.94,0 0,-56.559 c 0,-7.5 1.25,-13.129 3.75,-16.879 2.58,-3.672 6.45,-5.473 11.56,-5.473 3.21,0 6.14,0.352 8.75,1.102 2.58,0.699 5.78,2.031 9.53,3.898 l -8.9,-21.398 c -3.87,-1.25 -7.27,-2.07 -10.16,-2.5 -2.93,-0.512 -6.83,-0.789 -11.72,-0.789 z m 29.42,2.5 c 11.25,20.937 20.51,39.219 27.81,54.848 5.7,11.871 11.76,25.543 18.12,41.089 -10.74,0 -19.17,-0.617 -25.31,-1.867 -6.05,-1.179 -10.86,-3.133 -14.37,-5.941 l 2.18,11.719 2.19,11.562 65.16,0 c -10.12,-21.371 -18.67,-39.84 -25.63,-55.473 l -18.12,-40.468 1.09,0 c 11.33,0 20.24,0.672 26.72,2.031 6.45,1.328 11.92,3.641 16.41,6.879 l -6.25,-24.379 -70,0 z m 81.99,-40.313 c 6.64,11.25 11.72,24.34 15.16,39.223 2.5,11.328 2.85,22.109 1.09,32.34 l 31.41,0 c -1.25,-11.481 -4.18,-22.18 -8.75,-32.18 -6.37,-13.953 -14.46,-27.07 -24.22,-39.383 l -14.69,0 z m 175.51,86.883 c 0,-10.121 0.39,-18.601 1.25,-25.472 0.82,-6.797 2.26,-13.829 4.37,-21.098 l -32.65,0 c 2.07,7.07 3.47,14.07 4.22,20.937 0.82,6.883 1.24,15.391 1.24,25.633 l 0,90.469 c -3.55,4.762 -6.64,8.672 -9.21,11.711 -5.75,6.879 -9.5,10.82 -11.25,11.879 l 38.12,0 c 4.45,-8.051 8.75,-15.121 12.81,-21.25 4.07,-6.168 9.07,-13.051 15,-20.629 l 61.1,-79.531 0,74.851 c 0,10.071 -0.43,18.508 -1.25,25.309 -0.74,6.871 -2.19,13.941 -4.38,21.25 l 32.82,0 c -2.11,-7.192 -3.56,-14.219 -4.38,-21.09 -0.86,-6.801 -1.25,-15.281 -1.25,-25.469 l 0,-75.472 c 0,-7.93 0.51,-15.629 1.56,-23.129 1.02,-7.418 2.27,-12.578 3.75,-15.469 l -32.65,0 c -0.32,2.269 -2.31,6.41 -5.94,12.348 -3.56,5.941 -7.77,12.031 -12.66,18.281 l -60.62,79.058 0,-63.117 z m 164.84,-49.07 c -10.86,0 -19.22,2.348 -25.15,7.039 -5.86,4.68 -8.76,11.281 -8.76,19.84 0,5.699 2.04,11.09 6.1,16.09 4.14,5.082 9.76,9.14 16.87,12.191 l 32.82,13.438 0,10.152 c 0,6.141 -1.96,10.98 -5.79,14.539 -3.74,3.629 -8.82,5.461 -15.15,5.461 -4.06,0 -8.05,-0.742 -11.88,-2.18 -3.75,-1.371 -7.93,-3.679 -12.5,-6.883 l 6.1,21.411 c 4.37,1.871 8.59,3.203 12.65,4.062 4.14,0.82 8.32,1.25 12.5,1.25 12.07,0 21.14,-3.199 27.19,-9.531 6.02,-6.25 9.06,-15.629 9.06,-28.129 l 0,-43.59 c 0,-9.371 0.24,-16.48 0.79,-21.25 0.62,-4.691 1.71,-8.519 3.28,-11.41 l -26.25,0 0,10.629 -17.35,-12.809 -4.53,-0.32 z m 21.88,19.379 0,30.781 -28.75,0 c -0.75,0 -1.64,-2.109 -2.66,-6.25 -1.05,-4.18 -1.56,-7.66 -1.56,-10.473 0,-5.226 1.72,-9.179 5.15,-11.867 3.44,-2.621 8.52,-3.91 15.32,-3.91 4.25,0 8.32,0.551 12.18,1.719 l 0.32,0 z m 76.79,-19.379 c -8.75,0 -15.11,2.578 -19.06,7.82 -3.98,5.188 -5.94,13.508 -5.94,25 l 0,65.778 -15.78,0 37.81,40 0.16,0 0,-24.688 25.94,0 0,-15.312 -25.94,0 0,-56.559 c 0,-7.5 1.25,-13.129 3.75,-16.879 2.58,-3.672 6.45,-5.473 11.56,-5.473 3.21,0 6.14,0.352 8.75,1.102 2.58,0.699 5.78,2.031 9.53,3.898 l -8.9,-21.398 c -3.87,-1.25 -7.27,-2.07 -10.16,-2.5 -2.93,-0.512 -6.83,-0.789 -11.72,-0.789 z m 62.54,81.41 0,-41.562 c 0,-6.489 1.45,-11.25 4.38,-14.379 3,-3.121 7.54,-4.68 13.59,-4.68 4.88,0 10.7,1.32 17.5,4.059 l 3.59,1.402 0,55.16 c 0,6.02 -0.39,11.449 -1.09,16.25 -0.62,4.77 -1.83,10.199 -3.59,16.25 l 31.87,0 c -1.79,-3.551 -3.04,-7.73 -3.75,-12.5 -0.74,-4.801 -1.09,-11.48 -1.09,-20 l 0,-46.25 c 0,-8.75 0.35,-15.551 1.09,-20.312 0.71,-4.688 1.96,-8.829 3.75,-12.348 l -25.94,0 0,18.91 -17.65,-19.062 c -6.37,-1.559 -11.1,-2.348 -14.22,-2.348 -10.12,0 -17.77,2.66 -22.97,7.969 -5.23,5.32 -7.81,13.05 -7.81,23.281 l 0,50.16 c 0,5.938 -0.39,11.289 -1.1,16.09 -0.62,4.769 -1.83,10.238 -3.59,16.41 l 31.88,0 c -1.8,-3.551 -3.09,-7.73 -3.91,-12.5 -0.63,-4.801 -0.94,-11.48 -0.94,-20 z m 92.54,-46.25 0,46.25 c 0,5.938 -0.39,11.289 -1.09,16.09 -0.63,4.769 -1.84,10.238 -3.6,16.41 l 27.03,0 0,-19.691 17.19,19.379 c 5.2,1.871 10.16,2.812 14.85,2.812 3.82,0 7.18,-0.742 10,-2.191 l -4.54,-24.059 -1.09,0.777 c -4.18,3.012 -9.14,4.532 -14.84,4.532 -4.3,0 -9.81,-1.559 -16.57,-4.68 l -5,-2.191 0,-53.438 c 0,-8.75 0.32,-15.551 0.94,-20.312 0.71,-4.688 1.96,-8.829 3.75,-12.348 l -31.72,0 c 1.76,3.437 3.01,7.539 3.75,12.348 0.63,4.761 0.94,11.562 0.94,20.312 z m 102.7,-35.16 c -10.86,0 -19.22,2.348 -25.16,7.039 -5.86,4.68 -8.75,11.281 -8.75,19.84 0,5.699 2.03,11.09 6.09,16.09 4.14,5.082 9.77,9.14 16.88,12.191 l 32.81,13.438 0,10.152 c 0,6.141 -1.95,10.98 -5.78,14.539 -3.75,3.629 -8.83,5.461 -15.16,5.461 -4.06,0 -8.04,-0.742 -11.87,-2.18 -3.75,-1.371 -7.93,-3.679 -12.5,-6.883 l 6.09,21.411 c 4.38,1.871 8.6,3.203 12.66,4.062 4.14,0.82 8.32,1.25 12.5,1.25 12.07,0 21.13,-3.199 27.19,-9.531 6.01,-6.25 9.06,-15.629 9.06,-28.129 l 0,-43.59 c 0,-9.371 0.23,-16.48 0.78,-21.25 0.63,-4.691 1.72,-8.519 3.28,-11.41 l -26.25,0 0,10.629 -17.34,-12.809 -4.53,-0.32 z m 21.87,19.379 0,30.781 -28.75,0 c -0.74,0 -1.64,-2.109 -2.65,-6.25 -1.06,-4.18 -1.57,-7.66 -1.57,-10.473 0,-5.226 1.72,-9.179 5.16,-11.867 3.44,-2.621 8.51,-3.91 15.31,-3.91 4.26,0 8.32,0.551 12.19,1.719 l 0.31,0 z m 49.14,15.781 0,88.129 c 0,7.262 -0.39,13.32 -1.09,18.121 -0.63,4.77 -1.84,9.609 -3.6,14.527 l 15.94,3.133 15.78,3.278 c -1.79,-5 -3.04,-10.629 -3.75,-16.879 -0.62,-6.25 -0.93,-14.758 -0.93,-25.469 l 0,-84.84 c 0,-8.75 0.31,-15.551 0.93,-20.312 0.71,-4.688 1.96,-8.829 3.75,-12.348 l -31.72,0 c 1.76,3.437 3.01,7.539 3.75,12.348 0.63,4.761 0.94,11.562 0.94,20.312 z m 194.96,96.41 c -4.68,5.071 -9.45,8.789 -14.22,11.09 -4.8,2.27 -10.07,3.438 -15.78,3.438 -6.79,0 -12.34,-2.028 -16.72,-6.098 -4.37,-4.063 -6.56,-9.141 -6.56,-15.152 0,-5.239 1.64,-9.957 5,-14.219 3.44,-4.18 9.53,-9.02 18.28,-14.531 13.21,-8.438 22.54,-16.368 27.97,-23.75 5.39,-7.418 8.13,-16.02 8.13,-25.778 0,-13.359 -4.77,-24.461 -14.22,-33.281 -9.49,-8.871 -21.37,-13.289 -35.63,-13.289 -7.11,0 -13.2,0.551 -18.28,1.57 -5,1.008 -10.9,2.969 -17.65,5.778 l 0,30 c 4.88,-6.168 9.92,-10.707 15.15,-13.598 5.31,-2.813 11.13,-4.211 17.5,-4.211 7.89,0 14.46,2.219 19.69,6.711 5.19,4.57 7.81,10.32 7.81,17.187 0,5.942 -1.8,11.172 -5.31,15.782 -3.44,4.461 -9.69,9.57 -18.75,15.32 -13.05,8.199 -22.15,15.852 -27.34,22.961 -5.32,6.961 -7.97,15.039 -7.97,24.219 0,12.5 4.76,22.89 14.37,31.25 9.69,8.441 21.76,12.66 36.25,12.66 5.71,0 10.86,-0.551 15.47,-1.559 4.57,-1.062 8.83,-2.66 12.81,-4.851 l 0,-27.649 z m 57.03,-131.57 c -8.75,0 -15.11,2.578 -19.06,7.82 -3.98,5.188 -5.94,13.508 -5.94,25 l 0,65.778 -15.78,0 37.82,40 0.15,0 0,-24.688 25.94,0 0,-15.312 -25.94,0 0,-56.559 c 0,-7.5 1.25,-13.129 3.75,-16.879 2.58,-3.672 6.45,-5.473 11.56,-5.473 3.21,0 6.14,0.352 8.75,1.102 2.58,0.699 5.79,2.031 9.54,3.898 l -8.91,-21.398 c -3.87,-1.25 -7.27,-2.07 -10.16,-2.5 -2.93,-0.512 -6.83,-0.789 -11.72,-0.789 z m 82.86,0 c -14.07,0 -25.79,5.199 -35.16,15.629 -9.38,10.39 -14.06,23.48 -14.06,39.219 0,17.691 5.19,32.382 15.62,44.062 10.39,11.641 23.44,17.5 39.06,17.5 14.15,0 25.86,-5.269 35.16,-15.781 9.38,-10.43 14.06,-23.52 14.06,-39.219 0,-17.621 -5.23,-32.269 -15.62,-43.91 -10.31,-11.68 -23.36,-17.5 -39.06,-17.5 z m 11.87,15.629 c 6.02,2.5 10.82,7.109 14.38,13.91 3.51,6.75 5.31,14.602 5.31,23.59 0,14.262 -3.44,25.66 -10.31,34.219 -6.8,8.511 -16.06,13.011 -27.82,13.441 -5.93,-2.43 -10.7,-7.039 -14.22,-13.91 -3.55,-6.801 -5.31,-14.649 -5.31,-23.59 0,-14.301 3.36,-25.711 10.16,-34.219 6.87,-8.562 16.13,-13.051 27.81,-13.441 z m 63.59,19.531 0,46.25 c 0,6.02 -0.39,11.449 -1.09,16.25 -0.62,4.77 -1.83,10.199 -3.59,16.25 l 26.87,0 0,-19.371 17.03,19.531 c 5.71,1.559 10.47,2.34 14.22,2.34 10.2,0 17.89,-3.199 23.13,-9.531 5.31,-6.25 7.97,-15.43 7.97,-27.5 l 0,-44.219 c 0,-9.371 0.23,-16.48 0.78,-21.25 0.62,-4.691 1.64,-8.519 3.12,-11.41 l -30.94,0 c 1.76,3.437 2.97,7.539 3.6,12.348 0.7,4.761 1.09,11.562 1.09,20.312 l 0,41.09 c 0,6.449 -1.52,11.25 -4.53,14.379 -3.05,3.199 -7.62,4.84 -13.75,4.84 -4.3,0 -9.84,-1.559 -16.72,-4.68 l -5,-2.191 0,-53.438 c 0,-8.75 0.35,-15.551 1.1,-20.312 0.7,-4.688 1.95,-8.829 3.75,-12.348 l -31.72,0 c 1.76,3.437 2.97,7.539 3.59,12.348 0.7,4.761 1.09,11.562 1.09,20.312 z m 157.43,-35.16 c -15.32,0 -27.93,5.16 -37.82,15.469 -9.8,10.32 -14.68,23.519 -14.68,39.691 0,17.5 4.29,32.07 12.97,43.75 8.63,11.641 19.41,17.5 32.34,17.5 l 0.31,0 c 12.7,0 22.5,-4.449 29.38,-13.281 6.87,-8.75 10.31,-21.328 10.31,-37.66 l 0,-10 -61.88,0 c 1.14,-10.11 4.11,-18.551 8.91,-25.309 6.02,-8.441 14.3,-12.66 24.84,-12.66 4.69,0 9.3,0.551 13.91,1.719 4.57,1.25 8.67,3.011 12.34,5.32 l -8.75,-21.25 c -4.92,-1.328 -8.86,-2.23 -11.87,-2.66 -2.93,-0.391 -6.37,-0.629 -10.31,-0.629 z m 14.53,70.937 c -0.12,9.692 -1.96,17.071 -5.47,22.192 -3.56,5.082 -8.67,7.66 -15.31,7.66 -7.43,0 -13.09,-3.129 -17.03,-9.379 -3.25,-5.121 -5.24,-11.949 -5.94,-20.473"
         inkscape:connector-curvature="0"
         id="path26"
         style="fill:#002d62;fill-opacity:1;fill-rule:nonzero;stroke:none" /></g></g></svg>